<?xml version="1.0" encoding="utf-8"?>
<!-- Generator: Adobe Illustrator 16.0.0, SVG Export Plug-In . SVG Version: 6.00 Build 0)  -->
<!DOCTYPE svg PUBLIC "-//W3C//DTD SVG 1.1//EN" "http://www.w3.org/Graphics/SVG/1.1/DTD/svg11.dtd">
<svg version="1.1" xmlns="http://www.w3.org/2000/svg" xmlns:xlink="http://www.w3.org/1999/xlink" x="0px" y="0px" width="155px"
	 height="42px" viewBox="0 0 155 42" enable-background="new 0 0 155 42" xml:space="preserve">
<g id="Layer_1">
	<g id="Layer_1_1_">
		<path fill="#2D2A2D" d="M61.071,22.323h-3.201c-0.63,0-1.333,0.036-2.108-0.013c0,0.547,0.073,1.086,0.217,1.557
			c0.703,0,1.055,0.214,1.055,0.613c0,0.273-0.181,0.65-0.544,1.124c-0.364,0.471-1.081,1.097-1.905,1.863l-1.691,1.53
			c0.297-1.507,2.272-12.145,2.566-13.813c0.242-1.339-0.176-2.132-0.926-2.381c-0.269,0.149-0.618,0.303-1.056,0.465
			c-0.437,0.16-0.634,0.316-1.109,0.463c-0.473,0.149-0.933,0.279-1.383,0.391c-0.447,0.111-0.817,0.181-1.108,0.207
			c-0.194,0.371-0.268,0.842-0.218,1.414c0.582,0,1.035,0.025,1.362,0.076c0.329,0.051,0.552,0.19,0.675,0.43
			c0.123,0.235,0.156,0.595,0.107,1.078c-0.048,0.486-0.399,2.467-0.545,3.337l-3.162,17.809h3.308l1.129-6.559
			c0.023-0.175,0.048-0.342,0.072-0.489c0.018-0.115,0.051-0.247,0.085-0.378l0.06-0.05c0.466,0.724,0.863,1.408,1.181,2.046
			c0.328,0.657,0.66,1.435,1.001,2.325c0.244,0.65,0.465,1.193,0.673,1.641c0.206,0.445,0.438,0.798,0.692,1.061
			c0.253,0.262,0.538,0.448,0.853,0.558c0.314,0.112,0.717,0.168,1.202,0.168c0.509,0,1.121-0.239,1.836-0.726
			c0.715-0.486,1.363-1.084,1.945-1.806c-0.146-0.472-0.364-0.868-0.655-1.19c-0.364,0.396-0.665,0.677-0.909,0.837
			c-0.244,0.162-0.485,0.239-0.728,0.239c-0.342,0-0.625-0.098-0.854-0.295c-0.232-0.198-0.515-0.658-0.854-1.379
			c-1.018-2.185-1.917-3.61-2.691-4.28c0.002-0.002,0.006-0.002,0.008-0.002c-0.292-0.236-0.63-0.414-0.963-0.558l0.619-0.485
			l3.164-2.941c0.898-0.843,1.687-1.427,2.364-1.75c0.677-0.324,1.369-0.497,2.073-0.522c0.097-0.225,0.165-0.479,0.2-0.764
			c0.036-0.283,0.053-0.612,0.053-0.86C62.308,22.359,61.676,22.323,61.071,22.323z M44.115,35.925
			c-0.327,0.176-0.612,0.263-0.856,0.263c-0.169,0-0.309-0.038-0.417-0.113c-0.109-0.076-0.176-0.21-0.2-0.407
			c-0.024-0.2,0-0.491,0.073-0.876c0.071-0.383,0.193-0.873,0.362-1.469l2.002-7.189c0.411-1.537,0.539-2.686,0.38-3.443
			c-0.157-0.757-0.612-1.297-1.365-1.622c-0.219,0.15-0.502,0.306-0.854,0.47c-0.352,0.159-0.728,0.316-1.127,0.461
			c-0.402,0.15-0.796,0.281-1.181,0.395c-0.388,0.11-0.729,0.181-1.019,0.203c-0.169,0.397-0.244,0.869-0.218,1.418
			c0.607,0,1.072,0.034,1.401,0.109c0.326,0.075,0.54,0.247,0.635,0.521c0.099,0.273,0.091,0.673-0.02,1.21
			c-0.106,0.534-0.295,1.271-0.56,2.216l-1.493,5.361c-0.438,1.615-0.515,2.911-0.237,3.893c0.28,0.98,1.025,1.47,2.237,1.47
			c0.679,0,1.364-0.219,2.055-0.651c0.688-0.437,1.388-1.048,2.091-1.844c-0.073-0.544-0.291-0.942-0.656-1.193
			C44.788,35.48,44.441,35.754,44.115,35.925z M45.333,15.107c-0.559,0-1.055,0.206-1.491,0.617
			c-0.44,0.408-0.728,0.961-0.874,1.657c-0.121,0.645-0.042,1.172,0.236,1.582c0.279,0.41,0.709,0.614,1.289,0.614
			c0.608,0,1.128-0.204,1.564-0.614c0.438-0.41,0.715-0.937,0.838-1.582c0.146-0.696,0.071-1.249-0.218-1.657
			C46.387,15.313,45.937,15.107,45.333,15.107z M69.459,35.925c-0.329,0.176-0.613,0.263-0.857,0.263
			c-0.169,0-0.307-0.038-0.419-0.113c-0.108-0.076-0.173-0.21-0.199-0.407c-0.023-0.2,0-0.491,0.073-0.876
			c0.071-0.383,0.192-0.873,0.363-1.469l2.001-7.189c0.411-1.537,0.539-2.686,0.381-3.443c-0.157-0.757-0.612-1.297-1.365-1.622
			c-0.216,0.15-0.502,0.306-0.853,0.47c-0.352,0.159-0.729,0.316-1.128,0.461c-0.401,0.15-0.796,0.281-1.182,0.395
			c-0.387,0.11-0.728,0.181-1.018,0.203c-0.169,0.397-0.244,0.869-0.219,1.418c0.607,0,1.074,0.034,1.402,0.109
			c0.327,0.075,0.539,0.247,0.635,0.521c0.098,0.273,0.091,0.673-0.019,1.21c-0.108,0.534-0.295,1.271-0.561,2.216l-1.493,5.361
			c-0.438,1.615-0.515,2.911-0.237,3.893c0.282,0.98,1.023,1.47,2.237,1.47c0.679,0,1.364-0.219,2.055-0.651
			c0.689-0.437,1.388-1.048,2.091-1.844c-0.073-0.544-0.292-0.942-0.656-1.193C70.131,35.48,69.787,35.754,69.459,35.925z
			 M70.424,15.107c-0.559,0-1.057,0.206-1.492,0.617c-0.438,0.408-0.728,0.961-0.873,1.657c-0.123,0.645-0.042,1.172,0.237,1.582
			c0.278,0.41,0.71,0.614,1.29,0.614c0.606,0,1.128-0.204,1.563-0.614c0.439-0.41,0.717-0.937,0.836-1.582
			c0.148-0.696,0.074-1.249-0.217-1.657C71.478,15.313,71.03,15.107,70.424,15.107z M113.291,35.104
			c-0.483,0.426-0.872,0.715-1.163,0.875c-0.287,0.162-0.567,0.24-0.832,0.24c-0.195,0-0.348-0.033-0.455-0.107
			c-0.108-0.074-0.179-0.225-0.2-0.447c-0.027-0.223,0-0.547,0.072-0.969c0.073-0.422,0.184-0.992,0.328-1.711l1.816-8.342
			c0.17-0.744,0.278-1.339,0.328-1.788c0.048-0.446,0.061-0.794,0.035-1.046c-0.023-0.245-0.079-0.419-0.164-0.521
			c-0.085-0.097-0.176-0.172-0.273-0.224c-0.241,0.127-0.556,0.212-0.944,0.261c-0.39,0.051-0.762,0.075-1.13,0.075
			c-0.268-0.101-0.586-0.182-0.962-0.243c-0.377-0.061-0.735-0.093-1.076-0.093c-1.184,0-2.307,0.247-3.364,0.743
			c-1.05,0.496-2.01,1.182-2.87,2.049c-0.862,0.869-1.597,1.905-2.197,3.109c-0.609,1.205-1.059,2.525-1.347,3.967
			c-0.534,2.755-0.546,4.751-0.035,5.992c0.509,1.24,1.368,1.864,2.58,1.864c0.68,0,1.34-0.175,1.982-0.521
			c0.644-0.347,1.248-0.8,1.817-1.36c0.569-0.556,1.099-1.179,1.582-1.863c0.485-0.682,0.898-1.368,1.235-2.065h0.038
			c-0.217,0.523-0.4,1.117-0.548,1.788c-0.146,0.671-0.182,1.303-0.107,1.9c0.075,0.593,0.295,1.098,0.673,1.507
			c0.374,0.408,0.977,0.612,1.798,0.612c0.632,0,1.316-0.248,2.058-0.743c0.738-0.494,1.398-1.095,1.979-1.788
			c-0.072-0.223-0.157-0.429-0.253-0.615C113.598,35.462,113.465,35.281,113.291,35.104z M109.367,25.948
			c-0.363,1.539-0.817,2.914-1.363,4.131c-0.546,1.218-1.098,2.247-1.653,3.09c-0.563,0.845-1.1,1.491-1.62,1.936
			c-0.521,0.447-0.94,0.671-1.252,0.671c-0.73,0-1.197-0.563-1.401-1.695c-0.206-1.128-0.093-2.746,0.344-4.858
			c0.17-0.915,0.405-1.761,0.708-2.531c0.306-0.77,0.675-1.427,1.111-1.973c0.437-0.547,0.945-0.974,1.528-1.288
			c0.582-0.309,1.249-0.463,1.999-0.463c0.85,0,1.588,0.122,2.218,0.373L109.367,25.948z M130.331,35.906
			c-0.4,0.236-0.734,0.354-1.001,0.354c-0.146,0-0.261-0.024-0.344-0.073c-0.087-0.053-0.123-0.188-0.111-0.41
			c0.013-0.225,0.067-0.568,0.164-1.043c0.098-0.469,0.242-1.127,0.436-1.974l1.059-4.541c0.337-1.464,0.488-2.661,0.452-3.594
			c-0.039-0.931-0.188-1.657-0.452-2.179c-0.269-0.522-0.602-0.881-1.002-1.078c-0.4-0.199-0.794-0.298-1.183-0.298
			c-0.63,0-1.3,0.187-2.016,0.557c-0.717,0.374-1.408,0.853-2.073,1.436c-0.668,0.582-1.267,1.214-1.802,1.896
			c-0.534,0.688-0.942,1.324-1.235,1.92l-0.581,1.266h-0.036c0.267-0.619,0.516-1.284,0.744-1.993
			c0.231-0.708,0.441-1.593,0.639-2.661c0.217-1.364-0.037-2.173-0.764-2.42c-0.27,0.148-0.616,0.306-1.056,0.466
			c-0.436,0.16-0.898,0.316-1.382,0.465c-0.485,0.147-0.952,0.277-1.401,0.391c-0.448,0.114-0.816,0.182-1.108,0.203
			c-0.122,0.202-0.186,0.42-0.201,0.654c-0.011,0.239-0.018,0.492-0.018,0.765c0.582,0,1.036,0.023,1.366,0.072
			c0.327,0.051,0.552,0.19,0.671,0.429s0.156,0.598,0.111,1.078c-0.051,0.485-0.146,1.162-0.293,2.029l-2.002,10.836h3.311
			l0.91-4.842c0.268-1.464,0.665-2.805,1.198-4.021c0.535-1.214,1.104-2.266,1.711-3.146c0.604-0.882,1.204-1.563,1.798-2.049
			c0.595-0.482,1.076-0.726,1.436-0.726c0.27,0,0.503,0.069,0.709,0.205c0.207,0.138,0.353,0.378,0.438,0.727
			c0.085,0.347,0.11,0.824,0.071,1.433c-0.033,0.611-0.16,1.387-0.378,2.327l-0.983,4.435c-0.194,0.916-0.352,1.75-0.472,2.493
			c-0.124,0.745-0.141,1.379-0.054,1.9c0.083,0.521,0.293,0.918,0.634,1.191s0.875,0.407,1.602,0.407
			c0.653,0,1.313-0.203,1.98-0.614c0.665-0.407,1.399-1.035,2.199-1.878c-0.097-0.447-0.316-0.844-0.655-1.195
			C131.075,35.405,130.729,35.674,130.331,35.906z M146.456,31.867l2.981-17.203c0.22-1.338-0.034-2.134-0.763-2.383
			c-0.268,0.149-0.618,0.305-1.054,0.465c-0.436,0.162-0.89,0.316-1.364,0.465c-0.472,0.148-0.935,0.279-1.383,0.391
			c-0.446,0.113-0.817,0.18-1.108,0.206c-0.123,0.199-0.188,0.417-0.199,0.652c-0.015,0.238-0.019,0.492-0.019,0.764
			c0.58,0,1.033,0.023,1.364,0.075c0.326,0.05,0.551,0.192,0.671,0.428c0.123,0.235,0.158,0.595,0.109,1.079
			c-0.05,0.483-0.146,0.901-0.291,1.771c-0.071,0.497-0.14,0.967-0.198,1.414c-0.064,0.446-0.105,0.867-0.129,1.268
			c-0.559-0.124-1.069-0.187-1.526-0.187c-1.189,0-2.311,0.247-3.366,0.745c-1.053,0.495-2.012,1.177-2.871,2.047
			c-0.861,0.867-1.593,1.905-2.2,3.108c-0.605,1.204-1.053,2.525-1.344,3.963c-0.534,2.757-0.546,4.754-0.037,5.997
			c0.51,1.241,1.371,1.862,2.584,1.862c0.703,0,1.392-0.188,2.072-0.559s1.311-0.854,1.892-1.452c0.579-0.594,1.114-1.259,1.6-1.992
			c0.482-0.732,0.896-1.457,1.238-2.177h0.033c-0.17,0.597-0.335,1.257-0.49,1.974c-0.156,0.721-0.205,1.39-0.147,2.012
			c0.064,0.617,0.28,1.14,0.657,1.563c0.374,0.421,0.996,0.632,1.871,0.632c0.631,0,1.327-0.247,2.092-0.743
			c0.762-0.497,1.436-1.093,2.019-1.79c-0.073-0.222-0.159-0.427-0.255-0.612c-0.098-0.186-0.23-0.366-0.396-0.542
			c-0.486,0.424-0.875,0.715-1.166,0.877c-0.29,0.16-0.57,0.238-0.834,0.238c-0.173,0-0.304-0.034-0.402-0.109
			c-0.097-0.075-0.143-0.258-0.143-0.559c0-0.297,0.04-0.739,0.127-1.322C146.161,33.652,146.288,32.858,146.456,31.867z
			 M144.242,25.948c-0.344,1.539-0.781,2.914-1.33,4.131c-0.547,1.218-1.104,2.247-1.675,3.09c-0.568,0.845-1.113,1.491-1.635,1.936
			c-0.52,0.447-0.939,0.671-1.256,0.671c-0.725,0-1.191-0.563-1.4-1.695c-0.2-1.128-0.086-2.746,0.349-4.858
			c0.17-0.915,0.403-1.761,0.708-2.531c0.306-0.77,0.673-1.427,1.109-1.973c0.438-0.547,0.947-0.974,1.528-1.288
			c0.582-0.309,1.247-0.463,2-0.463c0.849,0,1.588,0.122,2.218,0.373L144.242,25.948z"/>
		<path fill="#2D2A2D" d="M97.227,20.831c0,0-2.792,0.834-4.294,1.059c0,0,0.024,0.586,0.31,1.309c0,0,3.197-0.175,0.736,6.222
			c-0.116,0.311-0.245,0.629-0.399,0.968c-0.661,1.463-1.756,3.15-3.285,5.06c-0.072-0.688-0.17-1.458-0.284-2.31
			c-0.116-0.854-0.247-1.745-0.401-2.674c-0.153-0.93-0.326-1.874-0.518-2.826c-0.188-0.955-0.375-1.88-0.553-2.769
			c-0.178-0.866-0.331-1.553-0.458-2.063c-0.128-0.509-0.268-0.908-0.42-1.2c-0.152-0.293-0.318-0.504-0.497-0.632
			c-0.178-0.127-0.419-0.229-0.725-0.306c-0.206,0.254-0.497,0.49-0.879,0.707c-0.382,0.215-0.79,0.387-1.224,0.515
			c0.385,1.452,0.607,2.768,0.671,3.952c0.063,1.184-0.037,2.31-0.307,3.38c-0.268,1.069-0.705,2.108-1.318,3.112
			c-0.61,1.004-1.387,2.054-2.328,3.148c-0.052-0.686-0.121-1.457-0.211-2.31s-0.195-1.744-0.324-2.672
			c-0.127-0.931-0.266-1.872-0.42-2.826c-0.152-0.954-0.317-1.879-0.497-2.77c-0.15-0.764-0.279-1.389-0.38-1.869
			c-0.103-0.485-0.225-0.886-0.362-1.204c-0.141-0.319-0.319-0.561-0.535-0.729c-0.218-0.162-0.5-0.309-0.858-0.438
			c-0.407,0.306-0.989,0.625-1.74,0.954s-1.445,0.534-2.081,0.612c-0.076,0.204-0.126,0.472-0.151,0.803
			c-0.027,0.329-0.039,0.547-0.039,0.646c0.483-0.022,0.877-0.005,1.183,0.059c0.306,0.064,0.552,0.19,0.743,0.381
			c0.191,0.191,0.345,0.446,0.459,0.766s0.236,0.705,0.364,1.165c0.379,1.578,0.744,3.449,1.086,5.611
			c0.343,2.166,0.592,4.445,0.745,6.838c0.507,0.278,1.119,0.395,1.832,0.343c0.917-0.916,1.719-1.756,2.405-2.52
			c0.689-0.765,1.279-1.49,1.775-2.179c0.498-0.685,0.918-1.366,1.259-2.041c0.346-0.676,0.657-1.395,0.94-2.158
			c0.201,1.171,0.397,2.476,0.591,3.912c0.191,1.441,0.349,2.987,0.477,4.643c0.51,0.278,1.118,0.395,1.833,0.343
			c1.808-1.858,3.287-3.507,4.43-4.945c0.481-0.604,0.905-1.17,1.298-1.721l0.002,0.008C94.879,32.188,100.162,25.234,97.227,20.831
			z"/>
	</g>
	<g id="Layer_2_1_">
		<path fill="#40BBE1" d="M6.369,5.095l0.777,3.329l3.285,0.627l-3.25,0.792l-0.613,3.365L5.791,9.881L2.506,9.255l3.251-0.795
			L6.369,5.095z"/>
		<path fill="#40BBE1" d="M4.525,7.096L3.986,6.854L3.55,7.258l0.237-0.549L3.39,6.261l0.539,0.244l0.437-0.408L4.127,6.65
			L4.525,7.096z"/>
		<path fill="#40BBE1" d="M9.954,7.136L9.389,7.118L9.146,7.639L9.16,7.062l-0.509-0.25l0.564,0.016l0.243-0.521L9.442,6.885
			L9.954,7.136z"/>
		<path fill="#FFBF13" d="M16.892,8.955l-0.564-0.017l-0.243,0.52L16.1,8.882l-0.509-0.251l0.565,0.016L16.4,8.126l-0.018,0.577
			L16.892,8.955z"/>
		<path fill="#BF60A2" d="M12.73,1.469l0.542,2.327l2.298,0.439l-2.272,0.557L12.87,7.146l-0.543-2.329l-2.298-0.438l2.273-0.557
			L12.73,1.469z"/>
		<path fill="#BF60A2" d="M15.626,5.93l-0.187,0.752l0.594,0.479L15.299,6.97l-0.47,0.611l0.187-0.753l-0.593-0.481l0.734,0.191
			L15.626,5.93z"/>
		<path fill="#FFBF13" d="M17.996,7.901l0.496,2.13l2.104,0.401l-2.08,0.508l-0.392,2.154l-0.498-2.13l-2.103-0.401l2.082-0.51
			L17.996,7.901z"/>
		<g>
			<path fill="#2D2A2D" d="M15.179,11.306c-0.533-0.568-2.131-0.678-3.01-0.434c-1.365,0.381-2.226,0.986-2.511,1.796
				c-0.002,0.139,2.768,8.746,2.768,8.746c1.139,0.549,2.957,0.191,3.945-0.858C16.369,20.556,15.218,11.404,15.179,11.306z
				 M10.511,13.875l-0.259-0.847c1.251,0.627,3.592-0.634,3.592-0.634C12.922,13.959,10.511,13.875,10.511,13.875z"/>
			<path fill="#2D2A2D" d="M40.245,14.746c0,0-4.398,0.106-6.956,0c0,0,0.023,1.293,0.251,1.595c0,0,1.679,0.25,2.007,1.429
				c0,0,0.295,0.736-0.085,2.898c0,0-1.912,10.506-2.164,11.542l-6.822-17.87c0,0-0.96-0.165-1.635,0.053L18.44,32.628l-0.045,0.175
				c-1.565-8.822-1.624-9.21-1.853-11.477c-0.422,0.565-2.768,1.627-3.964,0.875c0.867,3.083,2.033,6.479,4.109,16.825l0.028-0.049
				l-0.018,0.059c0.003,0.01,0.004,0.02,0.007,0.028c0,0,1.014,0.05,1.353-0.059l6.708-19.053l7.336,18.964
				c0,0,0.908,0.109,1.288-0.021c0,0,3.573-17.255,4.017-18.964c0,0,0.692-3.364,2.583-3.591
				C39.991,16.341,40.297,15.182,40.245,14.746z"/>
		</g>
	</g>
</g>
<g id="Layer_2">
</g>
</svg>
